<svg width="167" height="35" viewBox="0 0 167 35" fill="none" xmlns="http://www.w3.org/2000/svg">
<path d="M3.284 34.18C2.372 34.18 1.724 33.7 1.34 32.74C0.98 31.78 0.8 30.244 0.8 28.132C0.8 25.012 1.244 22.048 2.132 19.24C2.348 18.544 2.696 18.04 3.176 17.728C3.68 17.392 4.376 17.224 5.264 17.224C5.744 17.224 6.08 17.284 6.272 17.404C6.464 17.524 6.56 17.752 6.56 18.088C6.56 18.472 6.38 19.336 6.02 20.68C5.78 21.64 5.588 22.48 5.444 23.2C5.3 23.896 5.18 24.772 5.084 25.828C5.732 23.956 6.5 22.372 7.388 21.076C8.3 19.78 9.224 18.82 10.16 18.196C11.12 17.548 12.02 17.224 12.86 17.224C13.7 17.224 14.288 17.416 14.624 17.8C14.984 18.184 15.164 18.772 15.164 19.564C15.164 20.332 14.936 21.724 14.48 23.74C14.288 24.604 14.156 25.252 14.084 25.684C15.284 22.732 16.616 20.584 18.08 19.24C19.544 17.896 20.912 17.224 22.184 17.224C23.744 17.224 24.524 18.004 24.524 19.564C24.524 20.5 24.26 22.192 23.732 24.64C23.276 26.728 23.048 28.108 23.048 28.78C23.048 29.74 23.396 30.22 24.092 30.22C24.572 30.22 25.136 29.932 25.784 29.356C26.456 28.756 27.344 27.796 28.448 26.476C28.736 26.14 29.06 25.972 29.42 25.972C29.732 25.972 29.972 26.116 30.14 26.404C30.332 26.692 30.428 27.088 30.428 27.592C30.428 28.552 30.2 29.296 29.744 29.824C28.712 31.096 27.596 32.14 26.396 32.956C25.22 33.772 23.876 34.18 22.364 34.18C21.14 34.18 20.216 33.832 19.592 33.136C18.968 32.416 18.656 31.384 18.656 30.04C18.656 29.368 18.824 28.168 19.16 26.44C19.472 24.928 19.628 23.884 19.628 23.308C19.628 22.924 19.496 22.732 19.232 22.732C18.92 22.732 18.476 23.14 17.9 23.956C17.324 24.748 16.748 25.804 16.172 27.124C15.596 28.444 15.128 29.836 14.768 31.3C14.504 32.452 14.192 33.22 13.832 33.604C13.496 33.988 12.944 34.18 12.176 34.18C11.384 34.18 10.784 33.808 10.376 33.064C9.992 32.296 9.8 31.372 9.8 30.292C9.8 29.38 9.92 28.06 10.16 26.332C10.352 24.796 10.448 23.788 10.448 23.308C10.448 22.924 10.316 22.732 10.052 22.732C9.692 22.732 9.236 23.164 8.684 24.028C8.132 24.892 7.592 25.996 7.064 27.34C6.56 28.684 6.152 30.004 5.84 31.3C5.576 32.428 5.264 33.196 4.904 33.604C4.568 33.988 4.028 34.18 3.284 34.18ZM31.9451 34.18C30.4571 34.18 29.2691 33.64 28.3811 32.56C27.4931 31.48 27.0491 30.064 27.0491 28.312C27.0491 26.392 27.4931 24.58 28.3811 22.876C29.2691 21.148 30.4451 19.768 31.9091 18.736C33.3971 17.68 34.9691 17.152 36.6251 17.152C37.1531 17.152 37.5011 17.26 37.6691 17.476C37.8611 17.668 38.0171 18.028 38.1371 18.556C38.6411 18.46 39.1691 18.412 39.7211 18.412C40.8971 18.412 41.4851 18.832 41.4851 19.672C41.4851 20.176 41.3051 21.376 40.9451 23.272C40.3931 26.032 40.1171 27.952 40.1171 29.032C40.1171 29.392 40.2011 29.68 40.3691 29.896C40.5611 30.112 40.8011 30.22 41.0891 30.22C41.5451 30.22 42.0971 29.932 42.7451 29.356C43.3931 28.756 44.2691 27.796 45.3731 26.476C45.6611 26.14 45.9851 25.972 46.3451 25.972C46.6571 25.972 46.8971 26.116 47.0651 26.404C47.2571 26.692 47.3531 27.088 47.3531 27.592C47.3531 28.552 47.1251 29.296 46.6691 29.824C45.6851 31.048 44.6411 32.08 43.5371 32.92C42.4331 33.76 41.3651 34.18 40.3331 34.18C39.5411 34.18 38.8091 33.916 38.1371 33.388C37.4891 32.836 36.9971 32.092 36.6611 31.156C35.4131 33.172 33.8411 34.18 31.9451 34.18ZM33.2411 30.544C33.7691 30.544 34.2731 30.232 34.7531 29.608C35.2331 28.984 35.5811 28.156 35.7971 27.124L37.1291 20.5C36.1211 20.524 35.1851 20.908 34.3211 21.652C33.4811 22.372 32.8091 23.332 32.3051 24.532C31.8011 25.732 31.5491 27.004 31.5491 28.348C31.5491 29.092 31.6931 29.644 31.9811 30.004C32.2931 30.364 32.7131 30.544 33.2411 30.544ZM58.9712 22.156C59.4992 22.156 59.9432 22.348 60.3032 22.732C60.6872 23.092 60.8792 23.548 60.8792 24.1C60.8792 24.412 60.8072 24.748 60.6632 25.108C60.2792 25.996 59.7392 26.74 59.0432 27.34C58.3472 27.94 57.5792 28.24 56.7392 28.24C56.0672 28.24 55.4912 28 55.0112 27.52C54.5552 27.04 54.3272 26.392 54.3272 25.576C54.3272 25.12 54.3512 24.628 54.3992 24.1C54.4472 23.716 54.4712 23.452 54.4712 23.308C54.4712 23.116 54.4232 22.972 54.3272 22.876C54.2552 22.78 54.1592 22.732 54.0392 22.732C53.7032 22.732 53.2472 23.14 52.6712 23.956C52.0952 24.748 51.5192 25.804 50.9432 27.124C50.3672 28.444 49.8992 29.836 49.5392 31.3C49.2752 32.452 48.9752 33.22 48.6392 33.604C48.3032 33.988 47.7512 34.18 46.9832 34.18C46.0712 34.18 45.4232 33.7 45.0392 32.74C44.6792 31.78 44.4992 30.244 44.4992 28.132C44.4992 25.012 44.9432 22.048 45.8312 19.24C46.0472 18.544 46.3952 18.04 46.8752 17.728C47.3792 17.392 48.0752 17.224 48.9632 17.224C49.4432 17.224 49.7792 17.284 49.9712 17.404C50.1632 17.524 50.2592 17.752 50.2592 18.088C50.2592 18.472 50.0792 19.336 49.7192 20.68C49.4792 21.64 49.2872 22.48 49.1432 23.2C48.9992 23.92 48.8792 24.808 48.7832 25.864C49.5752 23.8 50.4632 22.12 51.4472 20.824C52.4312 19.528 53.3912 18.604 54.3272 18.052C55.2632 17.5 56.1152 17.224 56.8832 17.224C57.5792 17.224 58.1072 17.428 58.4672 17.836C58.8512 18.22 59.0432 18.796 59.0432 19.564C59.0432 20.02 58.9112 20.884 58.6472 22.156H58.9712ZM78.3074 25.972C78.6194 25.972 78.8594 26.116 79.0274 26.404C79.2194 26.692 79.3154 27.088 79.3154 27.592C79.3154 28.552 79.0874 29.296 78.6314 29.824C77.5994 31.096 76.4714 32.14 75.2474 32.956C74.0234 33.772 72.6194 34.18 71.0354 34.18C66.1394 34.18 63.6914 30.736 63.6914 23.848C63.6914 22.792 63.7274 21.724 63.7994 20.644H62.3954C61.6754 20.644 61.1834 20.512 60.9194 20.248C60.6794 19.984 60.5594 19.564 60.5594 18.988C60.5594 17.644 61.0994 16.972 62.1794 16.972H64.2314C64.6394 14.332 65.2634 11.92 66.1034 9.736C66.9434 7.552 67.9514 5.812 69.1274 4.516C70.3274 3.22 71.6114 2.572 72.9794 2.572C73.9874 2.572 74.7794 3.016 75.3554 3.904C75.9314 4.792 76.2194 5.908 76.2194 7.252C76.2194 10.972 74.6594 14.212 71.5394 16.972H75.5714C75.9554 16.972 76.2314 17.056 76.3994 17.224C76.5674 17.392 76.6514 17.704 76.6514 18.16C76.6514 19.816 75.2954 20.644 72.5834 20.644H68.1914C68.1434 21.844 68.1194 22.78 68.1194 23.452C68.1194 25.948 68.4074 27.7 68.9834 28.708C69.5834 29.716 70.5194 30.22 71.7914 30.22C72.8234 30.22 73.7354 29.908 74.5274 29.284C75.3194 28.66 76.2554 27.724 77.3354 26.476C77.6234 26.14 77.9474 25.972 78.3074 25.972ZM72.0074 6.028C71.6474 6.028 71.2394 6.484 70.7834 7.396C70.3514 8.284 69.9314 9.532 69.5234 11.14C69.1394 12.724 68.8154 14.488 68.5514 16.432C69.9674 15.208 71.0234 13.84 71.7194 12.328C72.4394 10.792 72.7994 9.4 72.7994 8.152C72.7994 6.736 72.5354 6.028 72.0074 6.028ZM81.1003 14.848C80.0923 14.848 79.3363 14.62 78.8323 14.164C78.3283 13.684 78.0763 13.024 78.0763 12.184C78.0763 11.344 78.4003 10.648 79.0483 10.096C79.7203 9.52 80.5483 9.232 81.5323 9.232C82.4203 9.232 83.1403 9.448 83.6923 9.88C84.2443 10.312 84.5203 10.924 84.5203 11.716C84.5203 12.676 84.2083 13.444 83.5843 14.02C82.9603 14.572 82.1323 14.848 81.1003 14.848ZM80.8123 34.18C79.2523 34.18 78.1123 33.628 77.3923 32.524C76.6963 31.42 76.3483 29.956 76.3483 28.132C76.3483 27.052 76.4803 25.672 76.7443 23.992C77.0323 22.288 77.3923 20.704 77.8243 19.24C78.0403 18.472 78.3283 17.944 78.6883 17.656C79.0483 17.368 79.6243 17.224 80.4163 17.224C81.6403 17.224 82.2523 17.632 82.2523 18.448C82.2523 19.048 82.0243 20.44 81.5683 22.624C80.9923 25.264 80.7043 27.052 80.7043 27.988C80.7043 28.708 80.8003 29.26 80.9923 29.644C81.1843 30.028 81.5083 30.22 81.9643 30.22C82.3963 30.22 82.9363 29.92 83.5843 29.32C84.2323 28.72 85.0963 27.772 86.1763 26.476C86.4643 26.14 86.7883 25.972 87.1483 25.972C87.4603 25.972 87.7003 26.116 87.8683 26.404C88.0603 26.692 88.1563 27.088 88.1563 27.592C88.1563 28.552 87.9283 29.296 87.4723 29.824C85.0963 32.728 82.8763 34.18 80.8123 34.18ZM98.8876 25.972C99.1996 25.972 99.4396 26.116 99.6076 26.404C99.7996 26.692 99.8956 27.088 99.8956 27.592C99.8956 28.552 99.6676 29.296 99.2116 29.824C98.1796 31.096 97.0516 32.14 95.8276 32.956C94.6276 33.772 93.2596 34.18 91.7236 34.18C89.6116 34.18 88.0396 33.22 87.0076 31.3C85.9996 29.38 85.4956 26.896 85.4956 23.848C85.4956 20.92 85.8676 17.584 86.6116 13.84C87.3796 10.096 88.4956 6.88 89.9596 4.192C91.4476 1.504 93.2116 0.159998 95.2516 0.159998C96.4036 0.159998 97.3036 0.699998 97.9516 1.78C98.6236 2.836 98.9596 4.36 98.9596 6.352C98.9596 9.208 98.1676 12.52 96.5836 16.288C94.9996 20.056 92.8516 23.788 90.1396 27.484C90.3076 28.468 90.5836 29.176 90.9676 29.608C91.3516 30.016 91.8556 30.22 92.4796 30.22C93.4636 30.22 94.3276 29.944 95.0716 29.392C95.8156 28.816 96.7636 27.844 97.9156 26.476C98.2036 26.14 98.5276 25.972 98.8876 25.972ZM94.4596 3.724C93.9076 3.724 93.2836 4.72 92.5876 6.712C91.8916 8.704 91.2796 11.176 90.7516 14.128C90.2236 17.08 89.9356 19.912 89.8876 22.624C91.5916 19.816 92.9476 17.008 93.9556 14.2C94.9636 11.368 95.4676 8.788 95.4676 6.46C95.4676 4.636 95.1316 3.724 94.4596 3.724ZM101.702 14.848C100.694 14.848 99.9378 14.62 99.4338 14.164C98.9298 13.684 98.6778 13.024 98.6778 12.184C98.6778 11.344 99.0018 10.648 99.6498 10.096C100.322 9.52 101.15 9.232 102.134 9.232C103.022 9.232 103.742 9.448 104.294 9.88C104.846 10.312 105.122 10.924 105.122 11.716C105.122 12.676 104.81 13.444 104.186 14.02C103.562 14.572 102.734 14.848 101.702 14.848ZM101.414 34.18C99.8538 34.18 98.7138 33.628 97.9938 32.524C97.2978 31.42 96.9498 29.956 96.9498 28.132C96.9498 27.052 97.0818 25.672 97.3458 23.992C97.6338 22.288 97.9938 20.704 98.4258 19.24C98.6418 18.472 98.9298 17.944 99.2898 17.656C99.6498 17.368 100.226 17.224 101.018 17.224C102.242 17.224 102.854 17.632 102.854 18.448C102.854 19.048 102.626 20.44 102.17 22.624C101.594 25.264 101.306 27.052 101.306 27.988C101.306 28.708 101.402 29.26 101.594 29.644C101.786 30.028 102.11 30.22 102.566 30.22C102.998 30.22 103.538 29.92 104.186 29.32C104.834 28.72 105.698 27.772 106.778 26.476C107.066 26.14 107.39 25.972 107.75 25.972C108.062 25.972 108.302 26.116 108.47 26.404C108.662 26.692 108.758 27.088 108.758 27.592C108.758 28.552 108.53 29.296 108.074 29.824C105.698 32.728 103.478 34.18 101.414 34.18ZM124.205 22.948C124.517 22.948 124.757 23.104 124.925 23.416C125.093 23.728 125.177 24.124 125.177 24.604C125.177 25.756 124.829 26.44 124.133 26.656C122.693 27.16 121.109 27.448 119.381 27.52C118.925 29.536 118.025 31.156 116.681 32.38C115.337 33.58 113.813 34.18 112.109 34.18C110.669 34.18 109.433 33.832 108.401 33.136C107.393 32.44 106.625 31.516 106.097 30.364C105.569 29.212 105.305 27.964 105.305 26.62C105.305 24.796 105.653 23.176 106.349 21.76C107.045 20.32 108.005 19.204 109.229 18.412C110.453 17.596 111.809 17.188 113.297 17.188C115.121 17.188 116.585 17.824 117.689 19.096C118.817 20.344 119.477 21.892 119.669 23.74C120.797 23.668 122.141 23.428 123.701 23.02C123.893 22.972 124.061 22.948 124.205 22.948ZM112.397 30.364C113.165 30.364 113.825 30.052 114.377 29.428C114.953 28.804 115.337 27.904 115.529 26.728C114.785 26.224 114.209 25.564 113.801 24.748C113.417 23.932 113.225 23.068 113.225 22.156C113.225 21.772 113.261 21.388 113.333 21.004H113.153C112.193 21.004 111.389 21.472 110.741 22.408C110.117 23.32 109.805 24.616 109.805 26.296C109.805 27.616 110.057 28.624 110.561 29.32C111.089 30.016 111.701 30.364 112.397 30.364ZM124.643 34.18C123.731 34.18 123.083 33.7 122.699 32.74C122.339 31.78 122.159 30.244 122.159 28.132C122.159 25.012 122.603 22.048 123.491 19.24C123.707 18.544 124.055 18.04 124.535 17.728C125.039 17.392 125.735 17.224 126.623 17.224C127.103 17.224 127.439 17.284 127.631 17.404C127.823 17.524 127.919 17.752 127.919 18.088C127.919 18.472 127.739 19.336 127.379 20.68C127.139 21.64 126.947 22.48 126.803 23.2C126.659 23.92 126.539 24.808 126.443 25.864C127.235 23.8 128.123 22.12 129.107 20.824C130.091 19.528 131.051 18.604 131.987 18.052C132.947 17.5 133.823 17.224 134.615 17.224C136.175 17.224 136.955 18.004 136.955 19.564C136.955 20.5 136.691 22.192 136.163 24.64C135.707 26.728 135.479 28.108 135.479 28.78C135.479 29.74 135.827 30.22 136.523 30.22C137.003 30.22 137.567 29.932 138.215 29.356C138.887 28.756 139.775 27.796 140.879 26.476C141.167 26.14 141.491 25.972 141.851 25.972C142.163 25.972 142.403 26.116 142.571 26.404C142.763 26.692 142.859 27.088 142.859 27.592C142.859 28.552 142.631 29.296 142.175 29.824C141.143 31.096 140.027 32.14 138.827 32.956C137.651 33.772 136.307 34.18 134.795 34.18C133.571 34.18 132.647 33.832 132.023 33.136C131.399 32.416 131.087 31.384 131.087 30.04C131.087 29.368 131.255 28.168 131.591 26.44C131.903 24.928 132.059 23.884 132.059 23.308C132.059 22.924 131.927 22.732 131.663 22.732C131.351 22.732 130.907 23.14 130.331 23.956C129.779 24.748 129.203 25.804 128.603 27.124C128.027 28.444 127.559 29.836 127.199 31.3C126.935 32.428 126.623 33.196 126.263 33.604C125.927 33.988 125.387 34.18 124.643 34.18ZM156.003 25.972C156.315 25.972 156.555 26.116 156.723 26.404C156.915 26.692 157.011 27.088 157.011 27.592C157.011 28.552 156.783 29.296 156.327 29.824C155.439 30.904 154.179 31.9 152.547 32.812C150.939 33.724 149.211 34.18 147.363 34.18C144.843 34.18 142.887 33.496 141.495 32.128C140.103 30.76 139.407 28.888 139.407 26.512C139.407 24.856 139.755 23.32 140.451 21.904C141.147 20.464 142.107 19.324 143.331 18.484C144.579 17.644 145.983 17.224 147.543 17.224C148.935 17.224 150.051 17.644 150.891 18.484C151.731 19.3 152.151 20.416 152.151 21.832C152.151 23.488 151.551 24.916 150.351 26.116C149.175 27.292 147.171 28.228 144.339 28.924C144.939 30.028 146.079 30.58 147.759 30.58C148.839 30.58 150.063 30.208 151.431 29.464C152.823 28.696 154.023 27.7 155.031 26.476C155.319 26.14 155.643 25.972 156.003 25.972ZM146.931 20.752C146.043 20.752 145.287 21.268 144.663 22.3C144.063 23.332 143.763 24.58 143.763 26.044V26.116C145.179 25.78 146.295 25.276 147.111 24.604C147.927 23.932 148.335 23.152 148.335 22.264C148.335 21.808 148.203 21.448 147.939 21.184C147.699 20.896 147.363 20.752 146.931 20.752ZM160.776 34.972C159.528 34.972 158.568 34.684 157.896 34.108C157.248 33.532 156.924 32.884 156.924 32.164C156.924 31.54 157.152 31 157.608 30.544C158.064 30.088 158.736 29.86 159.624 29.86C159.936 29.86 160.296 29.896 160.704 29.968C161.136 30.016 161.46 30.052 161.676 30.076C161.652 29.452 161.508 28.864 161.244 28.312C161.004 27.76 160.692 27.232 160.308 26.728C159.924 26.2 159.564 25.744 159.228 25.36C158.484 26.776 157.74 27.952 156.996 28.888C156.276 29.824 155.484 30.712 154.62 31.552C154.188 31.984 153.732 32.2 153.252 32.2C152.868 32.2 152.556 32.068 152.316 31.804C152.076 31.516 151.956 31.168 151.956 30.76C151.956 30.28 152.124 29.836 152.46 29.428L152.928 28.852C154.248 27.22 155.244 25.876 155.916 24.82C156.348 24.124 156.78 23.296 157.212 22.336C157.668 21.376 158.256 20.068 158.976 18.412C159.432 17.356 160.38 16.828 161.82 16.828C162.492 16.828 162.96 16.888 163.224 17.008C163.488 17.128 163.62 17.32 163.62 17.584C163.62 17.728 163.572 17.956 163.476 18.268C163.38 18.58 163.248 18.892 163.08 19.204C162.648 20.068 162.432 20.8 162.432 21.4C162.432 21.76 162.552 22.156 162.792 22.588C163.056 23.02 163.452 23.56 163.98 24.208C164.748 25.216 165.324 26.08 165.708 26.8C166.116 27.496 166.32 28.264 166.32 29.104C166.32 30.112 166.08 31.072 165.6 31.984C165.144 32.872 164.496 33.592 163.656 34.144C162.816 34.696 161.856 34.972 160.776 34.972Z" fill="#2F80ED"/>
</svg>
